<svg width="40" height="40" viewBox="0 0 40 40" fill="none" xmlns="http://www.w3.org/2000/svg">
<path d="M20 40C31.0233 40 40 31.0233 40 20C40 8.97674 31.0233 0 20 0C8.97674 0 0 8.97674 0 20C0 31.0233 8.97674 40 20 40ZM20 2.7907C29.4884 2.7907 37.2093 10.5116 37.2093 20C37.2093 29.4884 29.4884 37.2093 20 37.2093C10.5116 37.2093 2.7907 29.4884 2.7907 20C2.7907 10.5116 10.5116 2.7907 20 2.7907Z" transform="translate(40 40) rotate(-180)" fill="#F2F2F2"/>
<path d="M1.39535 13.4884C2.18605 13.4884 2.7907 12.8837 2.7907 12.093V1.39535C2.7907 0.604651 2.18605 0 1.39535 0C0.604651 0 0 0.604651 0 1.39535V12.093C0 12.8837 0.604651 13.4884 1.39535 13.4884Z" transform="translate(21.3955 29.3022) rotate(-180)" fill="#F2F2F2"/>
<path d="M1.86047 3.72093C2.88372 3.72093 3.72093 2.88372 3.72093 1.86047C3.72093 0.837209 2.88372 0 1.86047 0C0.837209 0 0 0.837209 0 1.86047C0 2.88372 0.837209 3.72093 1.86047 3.72093Z" transform="translate(21.8604 14.4187) rotate(-180)" fill="#F2F2F2"/>
</svg>
