<svg xmlns="http://www.w3.org/2000/svg" viewBox="0 0 130.01 191.59"><defs><style>.cls-1{fill:#2b5972;}.cls-2{fill:#092f3e;}.cls-3{fill:#6f90a6;}</style></defs><title>trash</title><g id="Layer_2" data-name="Layer 2"><g id="Layer_1-2" data-name="Layer 1"><path class="cls-1" d="M130,37.2C130,16.66,100.91,0,65,0S0,16.66,0,37.2a22.14,22.14,0,0,0,.75,5.68L17.19,166.75c0,13.72,21.41,24.84,47.82,24.84s47.82-11.12,47.82-24.84L129.26,42.88A21.71,21.71,0,0,0,130,37.2Z"/><path class="cls-2" d="M65,73.4c-35.3,0-64-16.24-64-36.2S29.71,1,65,1s64,16.24,64,36.2S100.3,73.4,65,73.4Z"/><path class="cls-3" d="M65,2c17,0,33,3.78,45,10.63C121.61,19.29,128,28,128,37.2s-6.4,17.92-18,24.57C98,68.63,82,72.4,65,72.4S32,68.63,20,61.77C8.4,55.12,2,46.39,2,37.2S8.4,19.29,20,12.63C32,5.78,48,2,65,2m0-2C29.1,0,0,16.66,0,37.2S29.1,74.4,65,74.4s65-16.65,65-37.2S100.91,0,65,0Z"/><path class="cls-2" d="M98.78,184.32c8.65-4.5,14-10.71,14-17.57L129.22,42.88h0c-2.15,8-8.8,15.23-18.43,20.71Z"/></g></g></svg>