<svg width="40" height="36" viewBox="0 0 40 36" fill="none" xmlns="http://www.w3.org/2000/svg">
<path d="M36.0889 35.6889H3.91111C2.48889 35.6889 1.24444 34.9778 0.533333 33.7333C-0.177778 32.5333 -0.177778 31.0667 0.533333 29.8667L16.6222 1.95556C17.3333 0.755555 18.5778 8.47711e-08 20 8.47711e-08C21.4222 8.47711e-08 22.6667 0.711111 23.3778 1.95556L39.4667 29.8667C40.1778 31.0667 40.1778 32.5333 39.4667 33.7333C38.7556 34.9778 37.5111 35.6889 36.0889 35.6889ZM3.06667 31.3333C2.8 31.7778 2.97778 32.1778 3.06667 32.3111C3.15556 32.4444 3.42222 32.8 3.91111 32.8H36.1333C36.6222 32.8 36.8889 32.4444 36.9778 32.3111C37.0667 32.1778 37.2444 31.7778 36.9778 31.3333L20.8444 3.42222C20.5778 2.97778 20.1778 2.93333 20 2.93333C19.8222 2.93333 19.4222 2.97778 19.1556 3.42222L3.06667 31.3333Z" fill="#F2F2F2"/>
<path d="M1.33333 15.1556C0.533333 15.1556 0 14.4889 0 13.6889V1.46667C0 0.666667 0.533333 3.39084e-07 1.33333 3.39084e-07C2.13333 3.39084e-07 2.66667 0.666667 2.66667 1.46667V13.6889C2.66667 14.4889 2.13333 15.1556 1.33333 15.1556Z" transform="translate(18.6665 9.95557)" fill="#F2F2F2"/>
<path d="M1.73333 3.46667C2.69063 3.46667 3.46667 2.69063 3.46667 1.73333C3.46667 0.776041 2.69063 0 1.73333 0C0.77604 0 0 0.776041 0 1.73333C0 2.69063 0.77604 3.46667 1.73333 3.46667Z" transform="translate(18.2666 27.1555)" fill="#F2F2F2"/>
</svg>
